{"title":"Girlfight 2000 DVDRip-jammo","uid":6714604,"size":733521920,"categoryP":"video","categoryS":"movies","magnet":"?xt=urn:btih:981c622c12afbbff55e6f502314647b1e132db45&amp;dn=Girlfight+2000+DVDRip-jammo&amp;tr=udp%3A%2F%2Ftracker.openbittorrent.com%3A80&amp;tr=udp%3A%2F%2Fopen.demonii.com%3A1337&amp;tr=udp%3A%2F%2Ftracker.coppersurfer.tk%3A6969&amp;tr=udp%3A%2F%2Fexodus.desync.com%3A6969","seeders":1,"leechers":0,"uploader":".BONE.","files":2,"time":1317493516,"description":"Video Information\n\nID : 0\nFormat : div3\nCodec ID : div3\nDuration : 1h 50mn\nBit rate : 733 Kbps\nWidth : 640 pixels\nHeight : 352 pixels\nDisplay aspect ratio : 16:9\nFrame rate : 23.976 fps\nBits/(PixelxFrame) : 0.136\nStream size : 581 MiB (84%)\n\nAudio Information\n\nID : 1\nFormat : MPEG Audio\nFormat version : Version 1\nFormat profile : Layer 3\nCodec ID : 55\nCodec ID/Hint : MP3\nDuration : 1h 50mn\nBit rate mode : Constant\nBit rate : 128 Kbps\nChannel(s) : 2 channels\nSampling rate : 44.1 KHz\nCompression mode : Lossy\nStream size : 102 MiB (15%)\nAlignment : Split accross interleaves\nInterleave, duration : 42 ms (1.00 video frame)\n\n\nInterleave, preload duration : 500 ms\nWriting library : LAME3.88 (alpha)","torrent":{"xt":"urn:btih:981c622c12afbbff55e6f502314647b1e132db45","amp;dn":"Girlfight+2000+DVDRip-jammo","amp;tr":["udp%3A%2F%2Ftracker.openbittorrent.com%3A80","udp%3A%2F%2Fopen.demonii.com%3A1337","udp%3A%2F%2Ftracker.coppersurfer.tk%3A6969","udp%3A%2F%2Fexodus.desync.com%3A6969"],"infoHash":"981c622c12afbbff55e6f502314647b1e132db45","infoHashBuffer":{"type":"Buffer","data":[152,28,98,44,18,175,187,255,85,230,245,2,49,70,71,177,225,50,219,69]},"announce":[],"urlList":[]}}